<svg width="295" height="100" viewBox="0 0 295 100" fill="none" xmlns="http://www.w3.org/2000/svg">
<path fill-rule="evenodd" clip-rule="evenodd" d="M14.1737 76.8263C24.4494 87.1021 34.3896 92.54 44.8992 90.6176C49.8306 89.7156 53.8624 87.3274 57.1067 84.8327C60.1996 82.4543 63.1023 79.551 65.619 77.0337L65.8263 76.8263L66.0337 76.619L66.0338 76.6189C68.5511 74.1021 71.4544 71.1995 73.8327 68.1067C76.3274 64.8624 78.7156 60.8306 79.6176 55.8992C81.54 45.3896 76.1021 35.4494 65.8263 25.1737C55.5505 14.8979 45.6104 9.46004 35.1008 11.3824C30.1694 12.2844 26.1376 14.6726 22.8933 17.1673C19.8005 19.5456 16.8978 22.4489 14.3811 24.9662L14.381 24.9663L13.9663 25.381L13.9662 25.3811C11.4489 27.8978 8.54564 30.8005 6.16734 33.8933C3.67256 37.1376 1.28438 41.1694 0.382371 46.1008C-1.53996 56.6104 3.89787 66.5505 14.1737 76.8263ZM53.7896 61.7544C51.1296 65.6054 46.3661 67 40 67C33.6339 67 28.8704 65.6054 26.2104 61.7544C24.9623 59.9475 24.4532 57.9588 24.221 56.1811C23.9996 54.4863 23.9998 52.6878 24 51.1285V50.8715C23.9998 49.3122 23.9996 47.5137 24.221 45.8189C24.4532 44.0412 24.9623 42.0525 26.2104 40.2456C28.8704 36.3946 33.6339 35 40 35C46.3661 35 51.1296 36.3946 53.7896 40.2456C55.0377 42.0525 55.5468 44.0412 55.779 45.8189C56.0004 47.5137 56.0002 49.3121 56 50.8714V50.8716V51.1284C56.0002 52.6878 56.0004 54.4863 55.779 56.1811C55.5468 57.9588 55.0377 59.9475 53.7896 61.7544Z" fill="#16121E"/>
<path fill-rule="evenodd" clip-rule="evenodd" d="M133 66.0537C130.021 66.0537 127.602 66.0457 125.473 65.7677C123.39 65.4956 121.994 65.0069 120.992 64.3148C119.282 63.1336 117 60.0807 117 50.0537C117 40.0267 119.282 36.9739 120.992 35.7927C121.994 35.1005 123.39 34.6119 125.473 34.3397C127.602 34.0618 130.021 34.0537 133 34.0537C135.979 34.0537 138.398 34.0618 140.526 34.3397C142.61 34.6119 144.005 35.1005 145.007 35.7927C146.716 36.9727 148.995 40.0203 149 50.022V50.0855C148.995 60.0872 146.716 63.1348 145.007 64.3148C144.005 65.0069 142.61 65.4956 140.526 65.7677C138.398 66.0457 135.979 66.0537 133 66.0537ZM149 73.5624C146.665 74.7835 144.183 75.3752 141.822 75.6835C138.984 76.0541 135.946 76.0539 133.172 76.0537H132.827C130.054 76.0539 127.016 76.0541 124.178 75.6835C121.237 75.2994 118.107 74.4756 115.309 72.5427C109.418 68.4739 107 61.0267 107 50.0537C107 39.0807 109.418 31.6335 115.309 27.5648C118.107 25.6319 121.237 24.8081 124.178 24.424C127.016 24.0534 130.054 24.0536 132.827 24.0537L133.172 24.0537C135.946 24.0536 138.984 24.0534 141.822 24.424C144.763 24.8081 147.893 25.6319 150.691 27.5648C156.216 31.3813 158.687 38.1704 158.972 48.0537H159V50.02C159 50.0312 159 50.0425 159 50.0537C159 50.065 159 50.0762 159 50.0875V77.0537H149V73.5624Z" fill="#16121E"/>
<path fill-rule="evenodd" clip-rule="evenodd" d="M247 66.0537C244.021 66.0537 241.602 66.0457 239.473 65.7677C237.39 65.4956 235.994 65.0069 234.992 64.3148C233.282 63.1336 231 60.0807 231 50.0537C231 40.0267 233.282 36.9739 234.992 35.7927C235.994 35.1005 237.39 34.6119 239.473 34.3397C241.602 34.0618 244.021 34.0537 247 34.0537C249.979 34.0537 252.398 34.0618 254.527 34.3397C256.61 34.6119 258.005 35.1005 259.007 35.7927C260.716 36.9727 262.995 40.0203 263 50.022V50.0855C262.995 60.0872 260.716 63.1348 259.007 64.3148C258.005 65.0069 256.61 65.4956 254.527 65.7677C252.398 66.0457 249.979 66.0537 247 66.0537ZM263 73.5624C260.665 74.7835 258.183 75.3752 255.822 75.6835C252.984 76.0541 249.946 76.0539 247.172 76.0537H246.827C244.054 76.0539 241.016 76.0541 238.178 75.6835C235.237 75.2994 232.107 74.4756 229.309 72.5427C223.418 68.4739 221 61.0267 221 50.0537C221 39.0807 223.418 31.6335 229.309 27.5648C232.107 25.6319 235.237 24.8081 238.178 24.424C241.016 24.0534 244.054 24.0536 246.827 24.0537L247.172 24.0537C249.946 24.0536 252.984 24.0534 255.822 24.424C258.763 24.8081 261.893 25.6319 264.691 27.5648C270.216 31.3813 272.687 38.1704 272.972 48.0537H273V50.02C273 50.0312 273 50.0425 273 50.0537C273 50.065 273 50.0762 273 50.0875V77.0537H263V73.5624Z" fill="#16121E"/>
<path fill-rule="evenodd" clip-rule="evenodd" d="M187.337 66.8943C189.408 67.1763 191.768 67.1852 194.712 67.1852L211 67.1852L211 77L194.712 77C194.652 77 194.592 77 194.532 77C191.804 77.0002 188.786 77.0004 185.963 76.6161C183.02 76.2154 179.892 75.3543 177.109 73.3502C171.343 69.198 169 61.6729 169 50.5C169 39.3271 171.343 31.802 177.109 27.6498C179.892 25.6457 183.02 24.7846 185.963 24.3839C188.786 23.9996 191.804 23.9998 194.532 24L211 24L211 33.8148L194.712 33.8148C191.768 33.8148 189.408 33.8237 187.337 34.1057C185.324 34.3798 183.989 34.8682 183.024 35.5632C181.294 36.8091 179 40.0803 179 50.5C179 60.9197 181.294 64.1909 183.024 65.4368C183.989 66.1318 185.324 66.6202 187.337 66.8943Z" fill="#16121E"/>
<path fill-rule="evenodd" clip-rule="evenodd" d="M293 24.0537L293 77.0537L283 77.0537L283 24.0537L293 24.0537Z" fill="#7743DB"/>
<path fill-rule="evenodd" clip-rule="evenodd" d="M293 24L293 77L283 77L283 24L293 24Z" fill="#16121E"/>
<path fill-rule="evenodd" clip-rule="evenodd" d="M196.537 99.9331C194.698 100.269 192.958 99.3179 191.16 97.5196C189.362 95.7213 188.41 93.9818 188.747 92.1426C188.904 91.2796 189.322 90.5741 189.759 90.0063C190.175 89.4651 190.683 88.9571 191.124 88.5167L191.196 88.4441C191.637 88.0036 192.145 87.4955 192.686 87.0793C193.254 86.6427 193.959 86.2248 194.822 86.0669C196.662 85.7305 198.401 86.6821 200.199 88.4804C201.998 90.2787 202.949 92.0182 202.613 93.8574C202.455 94.7204 202.037 95.4259 201.6 95.9937C201.184 96.5349 200.676 97.0429 200.236 97.4833C200.223 97.4955 200.211 97.5076 200.199 97.5196C200.187 97.5317 200.175 97.5438 200.163 97.5559C199.723 97.9964 199.215 98.5045 198.673 98.9207C198.106 99.3573 197.4 99.7752 196.537 99.9331Z" fill="#16121E"/>
<path fill-rule="evenodd" clip-rule="evenodd" d="M283.501 11.499C285.363 13.3615 287.079 14.2574 288.838 13.9356C289.67 13.7834 290.36 13.3787 290.932 12.9389C291.482 12.5162 292.001 11.9972 292.467 11.5311L292.499 11.499L292.531 11.4669C292.997 11.001 293.516 10.482 293.939 9.93238C294.379 9.36037 294.783 8.67016 294.936 7.838C295.257 6.07876 294.361 4.36343 292.499 2.50096C290.637 0.638491 288.921 -0.257418 287.162 0.0643672C286.33 0.216579 285.64 0.62128 285.068 1.06114C284.518 1.4838 283.999 2.00283 283.533 2.46886L283.533 2.46886L283.469 2.53305L283.469 2.53306C283.003 2.99901 282.484 3.51798 282.061 4.06762C281.621 4.63963 281.217 5.32984 281.064 6.162C280.743 7.92124 281.638 9.63657 283.501 11.499Z" fill="#16121E"/>
</svg>
